<?xml version="1.0" encoding="utf-8"?>
<!-- Generator: Adobe Illustrator 21.1.0, SVG Export Plug-In . SVG Version: 6.00 Build 0)  -->
<svg version="1.2" baseProfile="tiny" id="Layer_1" xmlns="http://www.w3.org/2000/svg" xmlns:xlink="http://www.w3.org/1999/xlink"
	 x="0px" y="0px" viewBox="0 0 442.2 102.1" overflow="scroll" xml:space="preserve">
<path fill="#3B3B3B" d="M1.1,23.7c0,2.9,0,5.4,0,8.4c24,0,47.8,0,71.7,0c0,1.6-0.1,2.7,0,3.7c0.5,3.7-0.5,5.9-4.7,6.8
	c-3.5,0.7-6.9,2.2-10.1,3.9c-2.9,1.5-5.1,1.2-7.8-0.5c-10-6.2-20.5-7.6-31.5-2.5C4.7,49.9-1.2,65.2,6.1,77.1
	C13.4,88.9,25,95,37.5,99.8c-1.6-2-3.6-3.6-5.3-5.4c-3.8-4.1-8-8.1-11.2-12.7c-10-14.2,0-26.8,10.5-30.5c5.5-2,11.2-2,16.2,1.1
	C45.2,58,43,63.2,40.7,68.8c5.5,2.2,10,4.1,14.7,6c0.8-2.6,1.4-4.6,2.1-6.6c4.8-13.1,15.1-20,28.1-19C96.3,49.9,101,58,96.2,67.5
	c-1,2-2.4,3.9-3.9,5.6C85.2,81.1,76,85.6,65.6,87.6c3.5,3.7,6.7,7.3,10.3,10.6c0.7,0.7,2.9,0.8,3.8,0.2c4.5-2.9,9.2-5.8,13-9.5
	c14.5-14,14-40.5-6.1-46.8c-0.7-0.2-1.5-1.5-1.6-2.3c-0.2-2.5-0.1-5-0.1-7.9c10.5,0,20.5,0,30.6,0c0.9,0,1.8,0.2,3.2,0.3
	c0,5.6,0,11.1-0.1,16.6c0,0.7-0.8,1.3-1.1,2.1c-0.7,1.8-1.4,3.7-2.1,5.6c3.7-0.5,6.3-1.6,8.9-2.6c8-3.1,16.3-4.5,24.9-3.4
	c6.5,0.9,9.5,5.4,8.1,11.8c-16.4-8.8-34.7-1.8-43.5,8.1c-7.1,8-6.2,17.5,3.1,22.9c4.6,2.7,10.2,4.2,15.5,4.9
	c8.8,1.1,17-1.6,24.4-6.5c2.5,5.2,7.5,5.6,11.4,7.5c0-14.4,0.3-28.3-0.1-42.1c-0.3-8.3-4.8-13.8-12.4-15.5c-4.6-1-9.6-1.1-14.3-0.8
	c-4.4,0.2-8.7,1.5-13.3,2.3c0-3.8,0-7.4,0-11c43.8,0,87.2,0,131,0c0,1.8,0,3.2,0,4.7c0,14.6-0.1,29.1,0,43.7
	c0.1,10.1,8,17.8,18.1,17.8c10.6,0,19-6.1,23.6-17.4c-4.3-2.4-8.7-4.9-12.5-7.1c-1.4,5.6-2.4,10.9-4.1,15.9
	c-1.1,3.3-4.2,5.2-7.8,4.5c-3.7-0.8-4.8-3.9-4.8-7.5c0-17.5,0-35.1,0-52.6c0-0.6,0.2-1.3,0.3-2c38,0,75.8,0,113.9,0
	c0,5.4,0.1,10.5-0.1,15.6c0,1-0.7,1.9-1.1,2.9c-0.8,1.9-1.6,3.8-2.2,5.3c9.5-2.1,18.5-4.4,27.6-5.8c7.7-1.2,17.3,2.9,14.6,12.3
	c-1.2-0.6-2.4-1.1-3.6-1.7c-13.9-6.1-33.4-0.5-41.9,11.9c-4.2,6.2-3.8,12.7,1.5,18c7.7,7.7,17.4,8.8,27.4,7.1
	c5.6-0.9,10.8-3.5,15.1-4.9c4.3,2.4,8.1,4.5,12.3,6.9c0-13.6,0.3-26.1-0.1-38.7c-0.4-14.7-7.1-21-21.8-20.7
	c-6.1,0.1-12.2,1.6-18.5,2.4c0-3.4,0-7,0-11c15.2,0,30.2,0,45.4,0c0-2.9,0-5.4,0-8.3c-56.3,0-112.3,0-168.8,0c0-4.2,0.1-7.9,0-11.7
	c0-1.1-0.2-2.7-1-3.3c-3.5-2.8-7.3-5.2-11.7-8.4c0,8.4,0,15.8,0,23C247.6,23.3,71.6,23.7,1.1,23.7z M155.1,79.4
	c-6.6,6.6-18.1,11-29,11.5c-2.6-0.4-5.3-0.6-7.9-1.4c-4.6-1.4-5.5-4.2-2.9-8.3c5.7-9.3,19.3-15,30.2-12.5c2.7,0.6,5.5,1.4,8.1,2.4
	C158.6,73.2,159,75.5,155.1,79.4z M422.9,78.3c-8.2,8.3-18.4,11.7-30.8,12.4c-1.5-0.2-4.1-0.4-6.5-1.1c-5.3-1.5-6.3-4.3-3.2-8.9
	c6.1-9.2,19.3-14.5,30.1-11.9c3.2,0.8,6.5,1.8,9.5,3.2C425.4,73.7,425.5,75.6,422.9,78.3z"/>
<path fill="#3B3B3B" d="M197.8,45.6c-2.4,1.6-4.8,3.4-7.9,5.6c0-3.2,0-5.6,0-8.1c-4,0-7.5,0-11.1,0c-0.3,0.7-0.5,0.9-0.5,1.1
	c-0.1,16.2-0.1,32.4-0.1,48.5c0,0.8,0.4,2.1,1,2.4c3.2,1.8,6.5,3.4,10.8,5.7c0-9.4-0.8-17.9,0.2-26.1c1.6-12.8,7.4-23.4,20.4-28.2
	c10.1-3.7,19.6,1.7,20.7,11.5c1.2,10.6-1.4,20.1-9.2,27.7c-2.4,2.3-4.9,4.5-7.7,7c5.1,3.2,9.3,5.8,13.4,8.4
	c9.4-8.1,15.1-22.8,13.1-35.2C237.8,46.9,217.6,32.3,197.8,45.6z"/>
<path fill="#3B3B3B" d="M338.6,42.5c-3.9,1.5-7.6,3.4-11.6,5.2c-0.2-1.7-0.3-3.1-0.5-4.6c-4.4,0-8.5,0-12.5,0
	c-0.3,0.5-0.5,0.7-0.5,0.9c-0.1,16-0.1,32-0.1,48.1c0,0.9,0.7,2.1,1.4,2.5c3.7,2.1,7.5,4,11.9,6.3c0-9.5,0.1-18.4,0-27.2
	c-0.1-13,6.6-21.9,17.2-28c2.5-1.5,6.3-1.8,9.2-1.4c5.5,0.8,7.3,5.8,3.5,9.8c-2.9,3.1-6.8,5.1-10.5,7.7c0.5,0.6,1.5,1.8,2.5,3
	c7.5,8.4,8.4,8.4,16.2-0.2c5.4-5.9,5.2-12.4-0.8-17.7C356.6,40.4,348,38.8,338.6,42.5z"/>
</svg>
